<svg width="120" height="80" viewBox="0 0 120 80" fill="none" xmlns="http://www.w3.org/2000/svg">
  <defs>
    <linearGradient id="doveGradient" x1="0%" y1="0%" x2="100%" y2="100%">
      <stop offset="0%" style="stop-color:rgba(255,255,255,0.08);stop-opacity:1" />
      <stop offset="100%" style="stop-color:rgba(255,255,255,0.03);stop-opacity:1" />
    </linearGradient>
  </defs>
  
  <!-- Dove body -->
  <ellipse cx="60" cy="45" rx="25" ry="15" fill="url(#doveGradient)" stroke="rgba(255,255,255,0.1)" stroke-width="1"/>
  
  <!-- Dove head -->
  <circle cx="45" cy="35" r="8" fill="url(#doveGradient)" stroke="rgba(255,255,255,0.1)" stroke-width="1"/>
  
  <!-- Dove beak -->
  <path d="M37 35 L32 33 L37 37 Z" fill="rgba(255,255,255,0.06)"/>
  
  <!-- Dove wings -->
  <path d="M50 40 Q70 25 95 35 Q85 45 70 50 Q60 45 50 40 Z" fill="url(#doveGradient)" stroke="rgba(255,255,255,0.08)" stroke-width="1"/>
  <path d="M55 45 Q75 30 100 40 Q90 50 75 55 Q65 50 55 45 Z" fill="rgba(255,255,255,0.04)" stroke="rgba(255,255,255,0.06)" stroke-width="1"/>
  
  <!-- Dove tail -->
  <path d="M85 50 Q95 55 105 45 Q100 60 90 55 Q85 52 85 50 Z" fill="url(#doveGradient)" stroke="rgba(255,255,255,0.08)" stroke-width="1"/>
  
  <!-- Wing details -->
  <path d="M60 42 Q75 35 85 40" stroke="rgba(255,255,255,0.06)" stroke-width="0.5" fill="none"/>
  <path d="M65 47 Q80 40 90 45" stroke="rgba(255,255,255,0.06)" stroke-width="0.5" fill="none"/>
  
  <!-- Eye -->
  <circle cx="42" cy="32" r="1.5" fill="rgba(255,255,255,0.1)"/>
</svg>